HIERARCHY
ROOT Hips
{
	OFFSET 0.000000 83.214638 0.000000
	CHANNELS 6 Xposition Yposition Zposition Xrotation Yrotation Zrotation
	JOINT Pelvis
	{
		OFFSET 0.000000 0.000000 0.000000
		CHANNELS 3 Xrotation Yrotation Zrotation
		JOINT LeftUpLeg
		{
			OFFSET 8.479700 -4.795502 -0.379100
			CHANNELS 3 Xrotation Yrotation Zrotation
			JOINT LeftLeg
			{
				OFFSET 0.024144 -32.555107 0.112900
				CHANNELS 3 Xrotation Yrotation Zrotation
				JOINT LeftFoot
				{
					OFFSET -0.024144 -32.638630 -3.012600
					CHANNELS 3 Xrotation Yrotation Zrotation
					JOINT LeftToeBase
					{
						OFFSET 0.970200 -13.225400 11.864200
						CHANNELS 3 Xrotation Yrotation Zrotation
						End Site
						{
							OFFSET 0.000000 12.319262 0.000000
						}
					}
					JOINT LFootTongue
					{
						OFFSET 1.142400 -1.059800 6.665200
						CHANNELS 3 Xrotation Yrotation Zrotation
						End Site
						{
							OFFSET 0.000000 12.319262 0.000000
						}
					}
				}
				JOINT LeftPantLeg
				{
					OFFSET 0.918482 -16.533964 -2.284700
					CHANNELS 3 Xrotation Yrotation Zrotation
					End Site
					{
						OFFSET 0.350399 24.744368 0.000000
					}
				}
			}
		}
		JOINT RightUpLeg
		{
			OFFSET -8.479700 -4.795502 -0.379100
			CHANNELS 3 Xrotation Yrotation Zrotation
			JOINT RightLeg
			{
				OFFSET -0.023144 -32.555092 0.112900
				CHANNELS 3 Xrotation Yrotation Zrotation
				JOINT RightFoot
				{
					OFFSET 0.023144 -32.638641 -3.012700
					CHANNELS 3 Xrotation Yrotation Zrotation
					JOINT RightToeBase
					{
						OFFSET -0.970200 -13.225400 11.864200
						CHANNELS 3 Xrotation Yrotation Zrotation
						End Site
						{
							OFFSET 0.000000 12.319244 0.000000
						}
					}
					JOINT RFootTongue
					{
						OFFSET -1.142200 -1.059800 6.665200
						CHANNELS 3 Xrotation Yrotation Zrotation
						End Site
						{
							OFFSET 0.000000 12.319243 0.000000
						}
					}
				}
				JOINT RightPantLeg
				{
					OFFSET -0.919482 -16.533978 -2.284800
					CHANNELS 3 Xrotation Yrotation Zrotation
					End Site
					{
						OFFSET -0.350400 24.744419 0.000000
					}
				}
			}
		}
	}
	JOINT Spine
	{
		OFFSET 0.000000 7.722000 1.166200
		CHANNELS 3 Xrotation Yrotation Zrotation
		JOINT Spine1
		{
			OFFSET 0.000000 12.024101 0.248800
			CHANNELS 3 Xrotation Yrotation Zrotation
			JOINT Spine2
			{
				OFFSET 0.000000 11.502998 -0.491200
				CHANNELS 3 Xrotation Yrotation Zrotation
				JOINT Neck
				{
					OFFSET 0.000000 18.430702 -3.123100
					CHANNELS 3 Xrotation Yrotation Zrotation
					JOINT Head
					{
						OFFSET 0.000000 9.051102 1.034000
						CHANNELS 3 Xrotation Yrotation Zrotation
						JOINT HairB
						{
							OFFSET 0.208400 24.786102 24.822300
							CHANNELS 3 Xrotation Yrotation Zrotation
							End Site
							{
								OFFSET 0.000000 32.263779 0.000000
							}
						}
						JOINT HairA
						{
							OFFSET -7.081100 24.428299 23.196600
							CHANNELS 3 Xrotation Yrotation Zrotation
							End Site
							{
								OFFSET 0.000000 32.263779 0.000000
							}
						}
						JOINT Hat
						{
							OFFSET 16.728800 15.048294 -15.439601
							CHANNELS 3 Xrotation Yrotation Zrotation
							End Site
							{
								OFFSET 0.000000 32.263779 0.000000
							}
						}
					}
				}
				JOINT LeftShoulder
				{
					OFFSET 6.197800 13.665199 -4.064700
					CHANNELS 3 Xrotation Yrotation Zrotation
					JOINT LeftArm
					{
						OFFSET 7.778100 -0.187103 -1.709300
						CHANNELS 3 Xrotation Yrotation Zrotation
						JOINT LeftForeArm
						{
							OFFSET 22.049376 0.000000 0.000000
							CHANNELS 3 Xrotation Yrotation Zrotation
							JOINT LeftHand
							{
								OFFSET 23.009392 0.000000 0.000000
								CHANNELS 3 Xrotation Yrotation Zrotation
								JOINT LeftHandThumb1
								{
									OFFSET 3.507191 -2.063065 3.133727
									CHANNELS 3 Xrotation Yrotation Zrotation
									JOINT LeftHandThumb2
									{
										OFFSET 3.101337 -1.790558 1.790558
										CHANNELS 3 Xrotation Yrotation Zrotation
										JOINT LeftHandThumb3
										{
											OFFSET 3.058640 -1.765907 1.765906
											CHANNELS 3 Xrotation Yrotation Zrotation
											End Site
											{
												OFFSET -0.415260 3.926476 -0.049563
											}
										}
									}
								}
								JOINT LeftHandIndex1
								{
									OFFSET 11.334419 -0.901459 3.706815
									CHANNELS 3 Xrotation Yrotation Zrotation
									JOINT LeftHandIndex2
									{
										OFFSET 3.283112 0.000000 0.000000
										CHANNELS 3 Xrotation Yrotation Zrotation
										JOINT LeftHandIndex3
										{
											OFFSET 3.323853 0.000000 0.000000
											CHANNELS 3 Xrotation Yrotation Zrotation
											End Site
											{
												OFFSET -1.135597 3.097809 0.402452
											}
										}
									}
								}
								JOINT LeftHandMiddle1
								{
									OFFSET 11.335861 0.000000 0.000000
									CHANNELS 3 Xrotation Yrotation Zrotation
									JOINT LeftHandMiddle2
									{
										OFFSET 3.410492 0.000000 0.000000
										CHANNELS 3 Xrotation Yrotation Zrotation
										JOINT LeftHandMiddle3
										{
											OFFSET 3.312172 0.000000 0.000000
											CHANNELS 3 Xrotation Yrotation Zrotation
											End Site
											{
												OFFSET -1.150200 3.080154 0.400270
											}
										}
									}
								}
								JOINT LeftHandRing1
								{
									OFFSET 11.514786 -0.013176 -3.003090
									CHANNELS 3 Xrotation Yrotation Zrotation
									JOINT LeftHandRing2
									{
										OFFSET 3.053307 0.000000 0.000000
										CHANNELS 3 Xrotation Yrotation Zrotation
										JOINT LeftHandRing3
										{
											OFFSET 3.295807 0.000000 0.000000
											CHANNELS 3 Xrotation Yrotation Zrotation
											End Site
											{
												OFFSET -1.281006 3.013344 0.375733
											}
										}
									}
								}
								JOINT LeftHandPinky1
								{
									OFFSET 10.518692 -0.960396 -5.730441
									CHANNELS 3 Xrotation Yrotation Zrotation
									JOINT LeftHandPinky2
									{
										OFFSET 2.861649 0.000000 0.000000
										CHANNELS 3 Xrotation Yrotation Zrotation
										JOINT LeftHandPinky3
										{
											OFFSET 2.863380 0.000000 0.000000
											CHANNELS 3 Xrotation Yrotation Zrotation
											End Site
											{
												OFFSET -0.843597 2.711159 0.369971
											}
										}
									}
								}
							}
							JOINT LSleeve
							{
								OFFSET 6.676277 -0.344902 -1.011730
								CHANNELS 3 Xrotation Yrotation Zrotation
								End Site
								{
									OFFSET 0.000000 14.885353 0.000000
								}
							}
						}
					}
				}
				JOINT RightShoulder
				{
					OFFSET -6.197800 13.665199 -4.064700
					CHANNELS 3 Xrotation Yrotation Zrotation
					JOINT RightArm
					{
						OFFSET -7.778100 -0.187103 -1.709300
						CHANNELS 3 Xrotation Yrotation Zrotation
						JOINT RightForeArm
						{
							OFFSET -22.049376 0.000000 0.000000
							CHANNELS 3 Xrotation Yrotation Zrotation
							JOINT RightHand
							{
								OFFSET -23.009392 0.000000 0.000000
								CHANNELS 3 Xrotation Yrotation Zrotation
								JOINT RightHandThumb1
								{
									OFFSET -3.507191 -2.063065 3.133727
									CHANNELS 3 Xrotation Yrotation Zrotation
									JOINT RightHandThumb2
									{
										OFFSET -3.101337 -1.790558 1.790558
										CHANNELS 3 Xrotation Yrotation Zrotation
										JOINT RightHandThumb3
										{
											OFFSET -3.058640 -1.765907 1.765906
											CHANNELS 3 Xrotation Yrotation Zrotation
											End Site
											{
												OFFSET 0.415260 3.926476 -0.049563
											}
										}
									}
								}
								JOINT RightHandIndex1
								{
									OFFSET -11.334419 -0.901459 3.706815
									CHANNELS 3 Xrotation Yrotation Zrotation
									JOINT RightHandIndex2
									{
										OFFSET -3.283112 0.000000 0.000000
										CHANNELS 3 Xrotation Yrotation Zrotation
										JOINT RightHandIndex3
										{
											OFFSET -3.323853 0.000000 0.000000
											CHANNELS 3 Xrotation Yrotation Zrotation
											End Site
											{
												OFFSET 1.135597 3.097809 0.402452
											}
										}
									}
								}
								JOINT RightHandMiddle1
								{
									OFFSET -11.335861 0.000000 0.000000
									CHANNELS 3 Xrotation Yrotation Zrotation
									JOINT RightHandMiddle2
									{
										OFFSET -3.410492 0.000000 0.000000
										CHANNELS 3 Xrotation Yrotation Zrotation
										JOINT RightHandMiddle3
										{
											OFFSET -3.312172 0.000000 0.000000
											CHANNELS 3 Xrotation Yrotation Zrotation
											End Site
											{
												OFFSET 1.150200 3.080154 0.400270
											}
										}
									}
								}
								JOINT RightHandRing1
								{
									OFFSET -11.514786 -0.013176 -3.003090
									CHANNELS 3 Xrotation Yrotation Zrotation
									JOINT RightHandRing2
									{
										OFFSET -3.053307 0.000000 0.000000
										CHANNELS 3 Xrotation Yrotation Zrotation
										JOINT RightHandRing3
										{
											OFFSET -3.295807 0.000000 0.000000
											CHANNELS 3 Xrotation Yrotation Zrotation
											End Site
											{
												OFFSET 1.281006 3.013344 0.375733
											}
										}
									}
								}
								JOINT RightHandPinky1
								{
									OFFSET -10.518692 -0.960396 -5.730441
									CHANNELS 3 Xrotation Yrotation Zrotation
									JOINT RightHandPinky2
									{
										OFFSET -2.861649 0.000000 0.000000
										CHANNELS 3 Xrotation Yrotation Zrotation
										JOINT RightHandPinky3
										{
											OFFSET -2.863380 0.000000 0.000000
											CHANNELS 3 Xrotation Yrotation Zrotation
											End Site
											{
												OFFSET 0.843597 2.711159 0.369971
											}
										}
									}
								}
							}
							JOINT RSleeve
							{
								OFFSET -6.676277 -0.344902 -1.011730
								CHANNELS 3 Xrotation Yrotation Zrotation
								End Site
								{
									OFFSET 0.000000 14.885353 0.000000
								}
							}
						}
					}
				}
				JOINT Backpack
				{
					OFFSET 0.000000 -2.471497 36.677502
					CHANNELS 3 Xrotation Yrotation Zrotation
					End Site
					{
						OFFSET 0.000000 20.427315 0.000000
					}
				}
				JOINT Hood
				{
					OFFSET 0.000000 18.754097 -10.431000
					CHANNELS 3 Xrotation Yrotation Zrotation
					JOINT Hood1
					{
						OFFSET 0.000000 -5.011002 -7.685901
						CHANNELS 3 Xrotation Yrotation Zrotation
						End Site
						{
							OFFSET 0.000000 9.175140 0.000000
						}
					}
				}
				JOINT LHoodieString
				{
					OFFSET 5.250500 16.397697 3.089900
					CHANNELS 3 Xrotation Yrotation Zrotation
					JOINT LHoodieString1
					{
						OFFSET 0.257700 -6.364304 3.694600
						CHANNELS 3 Xrotation Yrotation Zrotation
						JOINT LHoodieString2
						{
							OFFSET 0.000000 -9.643799 2.679100
							CHANNELS 3 Xrotation Yrotation Zrotation
							End Site
							{
								OFFSET 0.000000 10.009018 0.000000
							}
						}
					}
				}
				JOINT RHoodieString
				{
					OFFSET -5.250500 16.397697 3.089900
					CHANNELS 3 Xrotation Yrotation Zrotation
					JOINT RHoodieString1
					{
						OFFSET -0.257700 -6.364304 3.694600
						CHANNELS 3 Xrotation Yrotation Zrotation
						JOINT RHoodieString2
						{
							OFFSET 0.000000 -9.643799 2.679100
							CHANNELS 3 Xrotation Yrotation Zrotation
							End Site
							{
								OFFSET 0.000000 10.009018 0.000000
							}
						}
					}
				}
			}
			JOINT LBackpack_Strap
			{
				OFFSET 15.223200 -7.719803 -6.610900
				CHANNELS 3 Xrotation Yrotation Zrotation
				End Site
				{
					OFFSET 0.000000 16.040596 0.000000
				}
			}
			JOINT RBackpack_Strap
			{
				OFFSET -15.223000 -7.719803 -6.610900
				CHANNELS 3 Xrotation Yrotation Zrotation
				End Site
				{
					OFFSET 0.000000 16.040596 0.000000
				}
			}
		}
	}
	JOINT BoyFacialAnim_Joint
	{
		OFFSET 1.000000 -82.208099 -1.550900
		CHANNELS 3 Xrotation Yrotation Zrotation
		End Site
		{
			OFFSET 0.000000 30.012791 0.000000
		}
	}
}
MOTION
Frames: 4
Frame Time: 0.016667
0.505921 65.073807 -1.263161 27.058973 2.965915 10.474233 -0.000001 0.000000 0.000000 -34.903879 2.133980 0.506762 59.326361 15.104738 10.840058 -28.616358 23.489338 -6.080227 -0.000000 0.000001 -0.000003 -0.000000 0.000001 -0.000004 -0.000000 -0.000002 -0.000002 -89.264856 5.994698 -28.747996 73.224751 -8.699618 4.327089 -8.180621 -8.998516 5.426581 -0.000000 -0.000002 0.000000 -0.000000 -0.000002 0.000000 0.000001 0.000000 0.000000 32.120320 -0.162659 10.093169 3.579139 -0.232312 -3.938544 3.140855 -0.180144 -2.796540 -8.309820 -0.692397 -1.107459 -23.639775 -3.178998 -4.945283 0.000003 0.000000 -0.000000 0.000003 0.000000 -0.000000 0.000003 0.000000 -0.000000 0.921041 -8.099540 3.227719 -22.336003 21.630664 -27.124703 0.000009 -42.110063 0.000004 -19.024011 -3.343332 22.787939 -2.474315 3.056080 9.318484 2.660728 4.545114 0.290498 0.000001 0.000002 -0.000003 2.838262 -9.738364 17.774751 2.946394 5.649638 -55.058042 0.000003 -0.000001 -0.000004 0.858005 -7.704085 6.320660 1.312432 4.048616 -35.909399 -0.000000 0.000000 0.000004 -0.649893 -5.105820 -7.087029 0.259757 1.877015 -15.757024 -0.000001 0.000000 0.000003 0.822098 3.662454 -17.520514 -0.018111 -4.056682 -0.491022 0.000001 0.000000 0.000002 -0.000002 0.000002 0.000000 -0.010498 -1.127504 -4.578591 -38.463353 11.015790 16.018143 0.000005 33.301294 0.000002 4.826450 13.233967 -11.856337 -9.751024 7.203389 -8.614233 10.689695 -27.430641 -3.226674 -0.000001 -0.000005 0.000000 1.269053 7.231749 -10.596064 2.736410 -5.531157 52.618924 -0.000001 -0.000001 0.000002 0.008030 5.367945 0.238524 1.251965 -3.985335 34.867631 -0.000001 0.000001 -0.000002 -0.885810 3.067722 13.223277 0.268319 -1.916541 15.937067 0.000000 -0.000001 -0.000000 -0.321202 -0.767541 24.169393 -0.000002 -0.000009 -0.000008 0.000001 0.000000 -0.000003 -0.000003 -0.000004 -0.000000 -0.000003 0.000000 0.000001 -0.000003 0.000000 0.000001 -0.000003 0.000000 0.000001 -0.000003 0.000000 0.000001 -0.000003 0.000000 0.000000 -0.000003 0.000001 0.000000 -0.000003 0.000000 0.000001 -0.000003 0.000000 0.000000 -0.000003 0.000001 0.000000 0.000001 -0.000000 0.000000 0.000001 -0.000000 0.000000 -0.000001 0.000000 0.000000 
-0.936885 65.069000 -1.865349 26.926213 3.648635 10.152432 0.000001 0.000001 0.000001 -27.672677 4.285691 -0.076133 54.710939 15.861728 11.041835 -26.780709 20.699773 -7.301042 0.000003 -0.000003 -0.000004 0.000003 -0.000003 -0.000004 0.000001 -0.000001 0.000001 -89.963318 5.113739 -27.632531 74.122149 -9.030997 4.559100 -8.963893 -10.462102 3.083633 0.000000 -0.000002 0.000000 0.000000 -0.000002 0.000000 0.000001 -0.000004 0.000001 31.940229 -0.217919 10.947247 1.746687 -0.159778 -3.884514 2.816141 -0.174966 -2.865950 -8.365247 -0.534002 -1.129556 -23.694840 -2.334154 -5.041156 0.000002 -0.000000 0.000000 0.000002 -0.000000 0.000000 0.000002 -0.000000 0.000000 0.950614 -8.072897 3.889878 -21.740632 19.374875 -24.833104 -0.000003 -40.497988 -0.000001 -21.811649 -2.030259 22.795020 -3.423934 1.166794 8.910749 3.907065 7.892917 0.677794 -0.000001 0.000001 -0.000003 2.785949 -9.507616 17.952365 2.521389 5.328965 -50.617388 -0.000001 0.000003 -0.000003 0.936102 -7.392444 7.336947 1.109652 3.753358 -32.929428 0.000001 -0.000000 0.000000 -0.413191 -4.737528 -5.024287 0.216258 1.715459 -14.369289 -0.000000 -0.000003 0.000001 0.804563 3.961651 -14.556258 -0.018107 -4.056689 -0.491020 0.000001 0.000001 0.000002 -0.000000 -0.000001 -0.000000 -0.041847 -1.088700 -5.472471 -37.730487 11.255686 13.846332 -0.000004 30.222747 0.000002 3.476056 11.717301 -11.121241 -9.864132 7.038923 -9.737919 10.476999 -26.771630 -3.188217 -0.000000 -0.000004 0.000001 1.125891 6.596484 -10.416800 2.303794 -5.173583 47.983670 0.000001 -0.000003 0.000001 0.074977 4.442797 -0.718162 1.061527 -3.697661 32.025739 -0.000003 0.000000 0.000008 -0.535947 2.183982 10.913403 0.240698 -1.817152 15.089548 -0.000001 -0.000001 -0.000003 0.015827 -1.314339 20.720492 0.000239 -0.058422 0.479350 0.000003 -0.000001 -0.000002 -0.000000 -0.000003 -0.000000 -0.000002 0.000001 -0.000000 -0.000002 0.000001 -0.000000 -0.000002 0.000001 -0.000000 -0.000002 0.000001 -0.000000 -0.000002 0.000001 -0.000000 0.000000 0.000001 0.000001 -0.000002 0.000001 -0.000000 -0.000002 0.000001 -0.000000 0.000000 0.000001 0.000001 0.000001 0.000000 -0.000001 0.000001 0.000000 -0.000001 0.000001 0.000001 0.000001 
-2.303390 65.115501 -2.505886 26.912130 4.323638 9.827392 -0.000001 0.000000 -0.000001 -21.733817 6.143692 -0.466332 50.210329 17.113452 11.451257 -22.149433 15.414873 -9.037961 0.000002 0.000001 0.000001 0.000002 0.000001 0.000001 -0.000001 0.000001 0.000001 -90.770106 4.726611 -26.971090 74.635171 -8.350865 4.859873 -7.505761 -12.341191 2.919345 -0.000000 -0.000000 -0.000000 -0.000000 -0.000000 -0.000000 0.000000 0.000004 -0.000000 31.524858 -0.464314 11.598736 0.367793 -0.148794 -3.805486 2.452046 -0.190107 -2.912073 -8.421895 -0.369334 -1.154701 -23.743865 -1.464016 -5.130932 0.000001 -0.000000 -0.000000 0.000001 -0.000000 -0.000000 0.000001 -0.000000 -0.000000 0.971979 -7.959284 4.541532 -21.904143 16.849250 -22.534577 0.000013 -39.098523 0.000008 -23.656401 -0.285776 22.312789 -4.431669 -0.800039 8.481212 5.173229 11.378094 1.071904 0.000000 -0.000002 0.000001 2.732499 -9.283924 18.115101 2.105914 4.960307 -45.986438 -0.000001 -0.000000 -0.000000 1.004020 -7.077146 8.380210 0.914880 3.434618 -29.823157 -0.000001 0.000000 0.000000 -0.204811 -4.345594 -2.882289 0.175125 1.546086 -12.923834 -0.000000 -0.000005 0.000001 0.736817 4.283100 -11.462438 -0.018104 -4.056676 -0.491028 0.000003 -0.000001 0.000001 -0.000000 0.000002 0.000002 -0.064555 -1.068757 -6.082268 -36.713267 10.859454 12.127225 0.000000 28.694301 -0.000005 2.129583 10.864741 -10.955108 -9.976097 6.810324 -10.969730 10.202528 -25.928747 -3.142054 -0.000000 -0.000002 0.000001 0.977035 5.907166 -10.235280 1.881496 -4.760811 43.109306 0.000001 -0.000004 0.000008 0.109523 3.416265 -1.705881 0.874893 -3.381619 29.003486 -0.000002 0.000001 0.000002 -0.246970 1.160328 8.534753 0.210979 -1.703158 14.122062 0.000003 0.000001 0.000000 0.293679 -2.003821 17.166639 0.001986 -0.166493 1.366403 -0.000002 0.000004 0.000001 0.000000 -0.000001 0.000001 -0.000001 -0.000001 -0.000000 -0.000001 -0.000001 -0.000000 -0.000001 -0.000001 -0.000000 -0.000001 -0.000001 -0.000000 -0.000001 -0.000001 -0.000001 -0.000001 0.000001 -0.000001 -0.000001 -0.000001 -0.000000 -0.000001 -0.000001 -0.000001 -0.000001 0.000001 -0.000001 0.000003 -0.000000 -0.000000 0.000003 -0.000000 -0.000000 -0.000001 0.000000 -0.000001 
-3.619580 65.222214 -3.174442 26.982821 4.993943 9.518636 0.000001 0.000000 0.000001 -16.630409 7.807466 -0.872025 45.690328 16.421300 11.501700 -17.010280 10.850456 -8.758941 0.000002 -0.000001 -0.000002 0.000002 -0.000001 -0.000002 -0.000001 0.000001 0.000001 -91.526891 4.212409 -26.156448 74.790134 -7.828280 5.152762 -6.517356 -14.049730 1.808053 0.000000 -0.000002 0.000000 0.000000 -0.000002 0.000000 -0.000000 -0.000003 0.000000 30.928022 -0.842951 12.020598 -0.692180 -0.174154 -3.672689 2.092769 -0.232370 -2.897374 -8.478538 -0.199917 -1.182682 -23.788200 -0.577582 -5.217083 -0.000000 -0.000000 -0.000000 -0.000000 -0.000000 -0.000000 -0.000000 -0.000000 -0.000000 0.987105 -7.809380 5.190973 -22.482770 14.152351 -20.326238 -0.000002 -37.925886 -0.000003 -24.388034 1.697815 21.369768 -5.487788 -2.818743 8.036935 6.442173 14.960882 1.469183 -0.000000 0.000001 -0.000001 2.678450 -9.065575 18.269443 1.713550 4.550011 -41.256166 -0.000001 0.000005 -0.000003 1.059773 -6.759180 9.437031 0.733904 3.098140 -26.647751 0.000001 0.000001 -0.000001 -0.032033 -3.934112 -0.698990 0.137368 1.371274 -11.440936 -0.000000 -0.000000 0.000001 0.614690 4.620200 -8.297759 -0.018110 -4.056676 -0.491021 0.000001 -0.000001 0.000003 -0.000001 -0.000001 0.000001 -0.084924 -1.078469 -6.512684 -35.552262 9.899990 10.725427 0.000008 28.127368 -0.000002 0.580172 10.215341 -10.972594 -10.097473 6.540352 -12.274475 9.885098 -24.958456 -3.090270 -0.000000 -0.000003 0.000001 0.826395 5.179827 -10.052947 1.483142 -4.297302 38.067909 -0.000003 -0.000000 0.000002 0.106507 2.319768 -2.714669 0.698500 -3.042297 25.856084 0.000000 0.000001 0.000002 -0.042793 0.035388 6.110200 0.180842 -1.578613 13.069879 0.000002 0.000003 0.000001 0.477108 -2.801965 13.540355 0.005169 -0.268462 2.203546 0.000001 0.000003 -0.000003 0.000001 0.000001 -0.000000 -0.000001 -0.000000 -0.000000 -0.000001 -0.000000 -0.000000 -0.000001 -0.000000 -0.000000 -0.000001 -0.000000 -0.000000 -0.000001 -0.000000 -0.000000 -0.000001 0.000000 0.000000 -0.000001 -0.000000 -0.000000 -0.000001 -0.000000 -0.000000 -0.000001 0.000000 0.000000 0.000003 0.000000 0.000000 0.000003 0.000000 0.000000 0.000001 0.000000 0.000001 
